<svg height="384pt" viewBox="0 0 384.04048 384" width="384pt" xmlns="http://www.w3.org/2000/svg"><path d="m240 368.019531h-192c-17.601562 0-32-6.238281-32-15.679687v-160.320313h352v160.320313c0 9.441406 1.601562 15.679687-16 15.679687zm0 0" fill="#ff7043"/><path d="m256 192.019531h-240v-136.878906c0-25.039063 14.398438-39.121094 32-39.121094h304c17.601562 0 16 14.082031 16 39.121094v136.878906zm0 0" fill="#4dd0e1"/><path d="m384 55.140625.023438-5.703125c.089843-17.496094.167968-31.304688-9.535157-41.066406-5.519531-5.535156-13.082031-8.3515628-22.488281-8.3515628h-304c-23.847656 0-48 18.9296878-48 55.1210938v297.199219c0 18.945312 19.289062 31.679687 48 31.679687h304c8.023438 0 18.136719-.917969 25.191406-8.078125 7.023438-7.128906 6.90625-15.855468 6.824219-21.640625zm-336-23.121094h303.511719c.578125 3.898438.535156 11.167969.503906 17.25v126.75h-24.015625v-96c0-8.832031-7.167969-16-16-16s-16 7.167969-16 16v96h-24v-96c0-8.832031-7.167969-16-16-16s-16 7.167969-16 16v96h-24v-96c0-8.832031-7.167969-16-16-16s-16 7.167969-16 16v96h-152v-120.878906c0-14.265625 6.136719-23.121094 16-23.121094zm264 320v-104c0-8.832031-7.167969-16-16-16s-16 7.167969-16 16v104h-24v-104c0-8.832031-7.167969-16-16-16s-16 7.167969-16 16v104h-82.105469l63.417969-95.128906c4.894531-7.351563 2.910156-17.285156-4.441406-22.183594-7.367188-4.910156-17.285156-2.910156-22.183594 4.441407l-75.246094 112.871093h-55.441406c-7.9375 0-13.441406-1.605469-16-2.863281v-141.136719h320.007812l-.007812 144zm0 0" fill="#012e52"/></svg>